<svg width="16" height="16" viewBox="0 0 16 16" fill="none" xmlns="http://www.w3.org/2000/svg">
<path fill-rule="evenodd" clip-rule="evenodd" d="M9.33398 1.99992C9.33398 1.63173 9.63246 1.33325 10.0007 1.33325H14.0007C14.3688 1.33325 14.6673 1.63173 14.6673 1.99992V5.99992C14.6673 6.36811 14.3688 6.66659 14.0007 6.66659C13.6325 6.66659 13.334 6.36811 13.334 5.99992V3.6094L7.13872 9.80466C6.87837 10.065 6.45626 10.065 6.19591 9.80466C5.93556 9.54431 5.93556 9.1222 6.19591 8.86185L12.3912 2.66659H10.0007C9.63246 2.66659 9.33398 2.36811 9.33398 1.99992ZM3.33398 4.66659C3.15717 4.66659 2.9876 4.73682 2.86258 4.86185C2.73756 4.98687 2.66732 5.15644 2.66732 5.33325V12.6666C2.66732 12.8434 2.73756 13.013 2.86258 13.138C2.9876 13.263 3.15717 13.3333 3.33398 13.3333H10.6673C10.8441 13.3333 11.0137 13.263 11.1387 13.138C11.2637 13.013 11.334 12.8434 11.334 12.6666V8.66659C11.334 8.2984 11.6325 7.99992 12.0007 7.99992C12.3688 7.99992 12.6673 8.2984 12.6673 8.66659V12.6666C12.6673 13.197 12.4566 13.7057 12.0815 14.0808C11.7065 14.4559 11.1978 14.6666 10.6673 14.6666H3.33398C2.80355 14.6666 2.29484 14.4559 1.91977 14.0808C1.5447 13.7057 1.33398 13.197 1.33398 12.6666V5.33325C1.33398 4.80282 1.5447 4.29411 1.91977 3.91904C2.29484 3.54397 2.80355 3.33325 3.33398 3.33325H7.33398C7.70217 3.33325 8.00065 3.63173 8.00065 3.99992C8.00065 4.36811 7.70217 4.66659 7.33398 4.66659H3.33398Z" fill="#C4C2FF"/>
</svg>
