<svg preserveAspectRatio="none" width="100%" height="100%" overflow="visible" style="display: block;" viewBox="0 0 14 14" fill="none" xmlns="http://www.w3.org/2000/svg">
<path id="Solid" fill-rule="evenodd" clip-rule="evenodd" d="M10.559 5.36564e-07H2.77431C2.42288 -1.08682e-05 2.11969 -2.07064e-05 1.86998 0.0203813C1.60642 0.0419153 1.34427 0.0894593 1.09202 0.217989C0.715697 0.409735 0.409735 0.715697 0.217989 1.09202C0.0894593 1.34427 0.0419153 1.60642 0.0203813 1.86998C-2.07064e-05 2.11969 -1.08682e-05 2.42286 5.36564e-07 2.77428V10.559C-1.08682e-05 10.9105 -2.07064e-05 11.2136 0.0203813 11.4634C0.0419153 11.7269 0.0894593 11.9891 0.217989 12.2413C0.409735 12.6176 0.715697 12.9236 1.09202 13.1153C1.34427 13.2439 1.60642 13.2914 1.86998 13.313C2.11969 13.3334 2.42286 13.3333 2.77429 13.3333H10.559C10.9105 13.3333 11.2136 13.3334 11.4634 13.313C11.7269 13.2914 11.9891 13.2439 12.2413 13.1153C12.6176 12.9236 12.9236 12.6176 13.1153 12.2413C13.2439 11.9891 13.2914 11.7269 13.313 11.4634C13.3334 11.2136 13.3333 10.9105 13.3333 10.559V2.77429C13.3333 2.42286 13.3334 2.11969 13.313 1.86998C13.2914 1.60642 13.2439 1.34427 13.1153 1.09202C12.9236 0.715697 12.6176 0.409735 12.2413 0.217989C11.9891 0.0894593 11.7269 0.0419153 11.4634 0.0203813C11.2136 -2.07064e-05 10.9105 -1.08682e-05 10.559 5.36564e-07ZM7.33333 3.33333C7.33333 2.96514 7.03486 2.66667 6.66667 2.66667C6.29848 2.66667 6 2.96514 6 3.33333V10C6 10.3682 6.29848 10.6667 6.66667 10.6667C7.03486 10.6667 7.33333 10.3682 7.33333 10V3.33333ZM9.33334 5.33333C9.70153 5.33333 10 5.63181 10 6V10C10 10.3682 9.70153 10.6667 9.33334 10.6667C8.96514 10.6667 8.66667 10.3682 8.66667 10V6C8.66667 5.63181 8.96514 5.33333 9.33334 5.33333ZM4 6.66667C4.36819 6.66667 4.66667 6.96514 4.66667 7.33333V10C4.66667 10.3682 4.36819 10.6667 4 10.6667C3.63181 10.6667 3.33333 10.3682 3.33333 10V7.33333C3.33333 6.96514 3.63181 6.66667 4 6.66667Z" fill="var(--fill-0, #C4C2FF)"/>
</svg>
