<svg preserveAspectRatio="none" width="100%" height="100%" overflow="visible" style="display: block;" viewBox="0 0 106 25" fill="none" xmlns="http://www.w3.org/2000/svg">
<g id="pip.fun">
<path id="Vector" d="M98.7435 11.3793C98.7435 12.0641 98.943 12.4065 99.3418 12.4065C100.32 12.4065 101.592 11.7443 103.157 10.4197L103.462 10.1601C104.072 9.75369 104.565 9.55049 104.941 9.55049C105.325 9.55049 105.566 9.60694 105.663 9.71982C105.769 9.83271 105.822 10.0133 105.822 10.2617C105.822 10.8186 105.539 11.4094 104.975 12.034C104.132 13.0575 102.977 14.0283 101.509 14.9465C99.8084 16.0151 98.2845 16.5495 96.9373 16.5495C95.9966 16.5495 95.4059 16.0264 95.165 14.9803C95.0973 14.7094 95.0484 14.4498 95.0183 14.2014C94.943 13.5994 94.864 13.2645 94.7812 13.1967C94.6984 13.129 94.5329 13.1365 94.2845 13.2193C94.0437 13.2946 93.7539 13.4263 93.4153 13.6144C93.0841 13.795 92.7154 14.017 92.309 14.2804C90.1566 15.7103 88.9186 16.5269 88.595 16.7301C87.8199 17.2117 87.2968 17.4526 87.0259 17.4526C86.755 17.4526 86.4878 17.3961 86.2244 17.2832C85.9685 17.1703 85.7428 17.0273 85.5471 16.8543C85.1407 16.4704 84.9375 16.0791 84.9375 15.6802C84.9375 13.3999 85.4342 11.4056 86.4276 9.69725C87.0899 8.5458 87.9027 7.74807 88.866 7.30405C89.3551 7.07075 89.8819 6.9541 90.4464 6.9541C91.4774 6.9541 91.9929 7.29276 91.9929 7.97008C91.9929 8.384 91.7483 9.06132 91.2591 10.002L90.9205 10.6681C90.6797 11.1271 90.563 11.3868 90.5705 11.447C90.6157 11.6728 90.7173 11.7856 90.8753 11.7856C91.0484 11.7856 91.3043 11.6577 91.643 11.4018L93.7201 9.85529L94.7586 9.13281C95.9552 8.35013 96.8357 7.95879 97.4002 7.95879C97.7012 7.95879 97.9759 8.0792 98.2243 8.32003C98.6833 8.75652 98.9129 9.13658 98.9129 9.46018C98.9129 9.56554 98.9016 9.69348 98.879 9.844C98.8639 9.99451 98.8451 10.1563 98.8226 10.3294L98.7774 10.86C98.7548 11.0406 98.7435 11.2137 98.7435 11.3793Z" fill="var(--fill-0, white)"/>
<path id="Vector_2" d="M80.9806 11.7625C80.9806 12.5226 81.3155 12.9027 81.9853 12.9027C82.6551 12.9027 83.8141 12.2592 85.4622 10.9723L86.4556 10.1595C87.1104 9.61767 87.735 9.34674 88.3296 9.34674C88.5478 9.34674 88.6908 9.40695 88.7585 9.52736C88.8263 9.64025 88.8601 9.787 88.8601 9.96762C88.8601 10.1407 88.8263 10.3251 88.7585 10.5208C88.6983 10.7089 88.6118 10.9083 88.4989 11.1191C88.2505 11.5932 88.0097 11.9619 87.7764 12.2253C87.5431 12.4888 87.2684 12.7634 86.9523 13.0494C86.6438 13.3279 86.275 13.644 85.8461 13.9977C85.4171 14.3439 84.943 14.7013 84.4237 15.0701C83.9044 15.4313 83.3814 15.7625 82.8546 16.0635C81.6655 16.7559 80.6871 17.102 79.9195 17.102C79.0014 17.102 78.2827 16.7784 77.7634 16.1312C77.2742 15.5292 76.9995 14.7239 76.9393 13.7155C75.5847 15.1077 74.151 16.1801 72.6383 16.9327C71.7127 17.3918 70.93 17.6213 70.2903 17.6213C69.6506 17.6213 69.0899 17.5461 68.6083 17.3956C68.1266 17.2375 67.7052 17.0042 67.3439 16.6957C66.5613 16.0409 66.1699 15.1303 66.1699 13.9638C66.1699 12.2931 66.7682 10.6826 67.9648 9.13226C68.3411 8.65061 68.7626 8.22916 69.2291 7.86793C70.2376 7.23576 71.3063 6.91968 72.4351 6.91968C72.9318 6.91968 73.2855 7.07396 73.4963 7.38251C73.579 7.50293 73.6204 7.66097 73.6204 7.85664C73.6204 8.04478 73.564 8.26679 73.4511 8.52267C73.3457 8.77102 73.214 9.03442 73.056 9.31287C72.898 9.5838 72.7211 9.86602 72.5254 10.1595C72.3373 10.453 72.1642 10.739 72.0062 11.0175C71.6299 11.6797 71.4417 12.1576 71.4417 12.4511C71.4417 12.7371 71.5245 12.9478 71.6901 13.0833C71.8556 13.2188 72.0588 13.2865 72.2997 13.2865C72.834 13.2865 73.2893 13.1585 73.6656 12.9027C74.0419 12.6393 74.4144 12.3382 74.7832 11.9996L75.8443 10.961L76.8716 9.89988C77.6016 9.15483 78.1547 8.692 78.531 8.51138C78.9148 8.32323 79.1933 8.25174 79.3664 8.29689C79.5395 8.34205 79.7163 8.42483 79.8969 8.54524C80.0776 8.65813 80.2544 8.79736 80.4275 8.96293C80.8339 9.35427 81.0597 9.70798 81.1048 10.0241C81.1199 10.2273 81.1011 10.532 81.0484 10.9384C81.0032 11.3373 80.9806 11.612 80.9806 11.7625Z" fill="var(--fill-0, white)"/>
<path id="Vector_3" d="M64.4027 15.6799C63.6877 16.0562 62.9577 16.3648 62.2127 16.6056C61.4751 16.8389 60.7828 16.9556 60.1355 16.9556C59.4883 16.9556 58.7583 16.6621 57.9455 16.0751C57.8251 16.7298 57.716 17.3808 57.6182 18.028C57.5128 18.6827 57.3886 19.3074 57.2456 19.9019C57.1027 20.4964 56.9258 21.0496 56.7151 21.5613C56.4968 22.0731 56.2146 22.5134 55.8684 22.8821C55.1083 23.6874 54.051 24.09 52.6963 24.09C52.4856 24.09 52.3125 24.011 52.177 23.8529C51.9362 23.567 51.8384 23.2396 51.8835 22.8708C51.9287 22.5096 52.0717 21.9903 52.3125 21.313C52.5533 20.6357 52.8581 19.8869 53.2269 19.0665C53.5956 18.2538 54.0096 17.3883 54.4686 16.4702L55.9249 13.6931C55.7593 13.3018 55.6765 12.9519 55.6765 12.6433C55.6765 12.3347 55.7292 12.0262 55.8346 11.7176C55.9399 11.4091 56.0867 11.1193 56.2748 10.8484C56.7038 10.2087 57.1817 9.88887 57.7085 9.88887C57.8063 9.88887 57.9079 9.90015 58.0133 9.92273C59.985 6.58129 61.1177 4.67727 61.4112 4.21067L62.032 3.23985C63.191 1.53149 64.2898 0.50799 65.3283 0.16933C65.682 0.0564433 66.0433 0 66.412 0C66.7808 0 67.0818 0.127938 67.3151 0.383814C67.556 0.639691 67.6764 1.04608 67.6764 1.60299C67.6764 3.19093 66.7883 5.01593 65.0122 7.07799L62.0772 10.3291C61.5579 10.8936 61.0612 11.473 60.5871 12.0676C60.8354 12.3536 61.065 12.6019 61.2757 12.8126C61.4864 13.0158 61.6595 13.1174 61.795 13.1174C61.938 13.1174 62.1449 13.0723 62.4159 12.982C62.6868 12.8841 62.9953 12.7562 63.3415 12.5981C63.6952 12.4401 64.0715 12.2595 64.4704 12.0563C64.8693 11.8456 65.2568 11.6311 65.6331 11.4128C66.461 10.9312 67.0555 10.5361 67.4167 10.2275C68.0489 9.6932 68.5456 9.42603 68.9068 9.42603C69.1702 9.42603 69.3621 9.48624 69.4826 9.60665C69.6782 9.80232 69.7761 10.0356 69.7761 10.3065C69.7761 10.5699 69.6293 10.9425 69.3358 11.4241C69.0498 11.8982 68.6585 12.3874 68.1618 12.8916C67.6726 13.3884 67.1044 13.8813 66.4572 14.3705C65.81 14.8596 65.1251 15.2961 64.4027 15.6799Z" fill="var(--fill-0, white)"/>
<path id="Vector_4" d="M53.4121 14.4155C53.5626 14.6187 53.6378 14.8972 53.6378 15.2509C53.6378 15.5971 53.5287 15.9282 53.3105 16.2443C53.0922 16.5528 52.81 16.8162 52.4638 17.0345C51.7564 17.4935 50.9549 17.7231 50.0593 17.7231C49.1939 17.7231 48.5805 17.5011 48.2193 17.0571C48.0236 16.8087 47.9258 16.5152 47.9258 16.1765C47.9258 15.5067 48.2682 14.9122 48.953 14.3929C49.6379 13.8737 50.4544 13.614 51.4027 13.614C52.3585 13.614 53.0283 13.8812 53.4121 14.4155Z" fill="var(--fill-0, white)"/>
<path id="Vector_5" d="M35.3458 14.6188C35.5941 14.5134 35.9403 14.3478 36.3843 14.1221C39.1011 12.7298 40.5912 11.9622 40.8546 11.8192L41.3288 11.5595C41.8179 11.2435 42.0437 10.9951 42.0061 10.8145C41.9233 10.4307 41.7163 10.2764 41.3852 10.3516C41.0541 10.4194 40.7079 10.5135 40.3467 10.6339C39.9929 10.7543 39.6167 10.901 39.2178 11.0741C38.3824 11.4203 37.6487 11.7665 37.0165 12.1127C34.8039 13.3845 33.4719 14.1559 33.0203 14.4269C32.6967 15.1569 32.407 15.8831 32.1511 16.6056L30.7852 20.4663C30.3562 21.6629 29.9235 22.4719 29.487 22.8933C29.2537 23.1266 28.994 23.2433 28.708 23.2433C28.0006 23.2433 27.4437 22.9949 27.0373 22.4982C26.6309 22.0091 26.4277 21.3844 26.4277 20.6243C26.4277 19.8718 26.5256 19.1267 26.7212 18.3892C26.9169 17.6592 27.1878 16.9179 27.534 16.1653C28.2339 14.6451 29.1709 13.2265 30.3449 11.9095C31.0598 9.99041 32.2489 8.12778 33.9121 6.32159C34.9281 5.22283 35.8726 4.44768 36.7456 3.99613C37.1821 3.77036 37.5546 3.65747 37.8631 3.65747C38.1717 3.65747 38.405 3.72897 38.563 3.87196C38.7211 4.00742 38.8001 4.18051 38.8001 4.39123C38.8001 4.59443 38.7361 4.85407 38.6082 5.17015C38.4803 5.48623 38.3072 5.83995 38.0889 6.23129C37.8707 6.62263 37.6148 7.04031 37.3213 7.48433L36.3843 8.85025C36.3091 8.96314 36.2714 9.06474 36.2714 9.15505C36.2714 9.29804 36.358 9.36953 36.5311 9.36953C36.7268 9.36953 37.088 9.24536 37.6148 8.99701L39.421 8.16165C41.0014 7.4467 42.5141 7.08922 43.959 7.08922C44.7116 7.08922 45.419 7.4467 46.0813 8.16165C46.7511 8.88412 47.086 9.65928 47.086 10.4871C47.086 11.7665 46.5629 12.7524 45.5169 13.4447L44.1171 14.3704C43.6128 14.6865 43.0936 14.9988 42.5592 15.3074L40.9337 16.1992C39.1049 17.1474 37.6901 17.6215 36.6891 17.6215C35.6957 17.6215 34.9733 17.4974 34.5217 17.249C34.0702 17.0007 33.8444 16.6507 33.8444 16.1992C33.8444 15.5896 34.3448 15.0628 35.3458 14.6188Z" fill="var(--fill-0, white)"/>
<path id="Vector_6" d="M29.9091 4.39122C29.6909 4.57183 29.4538 4.72235 29.1979 4.84276C28.942 4.95565 28.6561 5.01209 28.34 5.01209C28.0239 5.01209 27.7191 4.95941 27.4256 4.85405C27.1321 4.74869 26.8762 4.60194 26.658 4.41379C26.1839 4.0074 25.9468 3.48812 25.9468 2.85596C25.9468 1.88513 26.7596 1.16266 28.3851 0.688536C28.9345 0.522969 29.3861 0.440186 29.7398 0.440186C30.0935 0.440186 30.3569 0.481577 30.53 0.564361C30.7106 0.639619 30.8574 0.741216 30.9702 0.869155C31.196 1.12503 31.3089 1.38843 31.3089 1.65936C31.3089 1.92276 31.275 2.16359 31.2073 2.38183C31.1471 2.60008 31.0568 2.82586 30.9364 3.05915C30.816 3.29245 30.6692 3.52575 30.4961 3.75905C30.323 3.99235 30.1274 4.20307 29.9091 4.39122ZM27.0644 16.82C26.4924 17.1135 25.9355 17.3468 25.3936 17.5199C24.8518 17.7005 24.3175 17.7909 23.7907 17.7909C23.2714 17.7909 22.7295 17.6667 22.1651 17.4183C21.6082 17.1625 21.1115 16.8238 20.675 16.4023C19.7042 15.4616 19.2188 14.4155 19.2188 13.2641C19.2188 12.203 19.5348 11.1268 20.167 10.0355C20.7465 9.04967 21.484 8.22183 22.3796 7.55204C23.2751 6.88225 24.1067 6.54735 24.8744 6.54735C25.9731 6.54735 26.5601 6.85591 26.6354 7.47302C26.658 7.66116 26.6693 7.87941 26.6693 8.12776C26.6693 8.37611 26.6091 8.66209 26.4886 8.9857C26.3758 9.30178 26.2252 9.62163 26.0371 9.94524C25.8565 10.2613 25.6533 10.5736 25.4275 10.8822C25.2093 11.1832 24.9985 11.4579 24.7953 11.7063C24.404 12.1804 24.0917 12.5228 23.8584 12.7335C23.8584 12.9894 24.0503 13.2528 24.4341 13.5237C24.7953 13.7796 25.1001 13.9076 25.3485 13.9076C25.6044 13.9076 25.9016 13.8474 26.2403 13.7269C26.5865 13.6065 26.9402 13.4447 27.3014 13.2415C27.6702 13.0383 28.0427 12.805 28.419 12.5416C28.8028 12.2782 29.1791 12.0073 29.5479 11.7288L31.6137 10.1146C32.434 9.52003 33.1 9.22276 33.6118 9.22276C33.815 9.22276 33.9693 9.29802 34.0746 9.44854C34.1875 9.59153 34.244 9.76086 34.244 9.95653C34.244 10.1522 34.1461 10.4231 33.9505 10.7693C33.7548 11.108 33.4839 11.4843 33.1377 11.8982C32.799 12.3121 32.4001 12.7448 31.9411 13.1964C31.482 13.6479 30.9853 14.0919 30.451 14.5284C29.9166 14.9649 29.3597 15.3826 28.7802 15.7815C28.2083 16.1728 27.6363 16.519 27.0644 16.82Z" fill="var(--fill-0, white)"/>
<path id="Vector_7" d="M8.91804 14.6187C9.16639 14.5134 9.51258 14.3478 9.9566 14.122C12.6734 12.7298 14.1635 11.9621 14.4269 11.8191L14.901 11.5595C15.3902 11.2434 15.616 10.9951 15.5784 10.8145C15.4956 10.4306 15.2886 10.2764 14.9575 10.3516C14.6263 10.4193 14.2802 10.5134 13.9189 10.6338C13.5652 10.7542 13.1889 10.901 12.7901 11.0741C11.9547 11.4203 11.2209 11.7665 10.5888 12.1126C8.37619 13.3845 7.04412 14.1559 6.59258 14.4268C6.26897 15.1568 5.97923 15.8831 5.72335 16.6055L4.35742 20.4663C3.92845 21.6629 3.49572 22.4719 3.05923 22.8933C2.82593 23.1266 2.56629 23.2433 2.28031 23.2433C1.57289 23.2433 1.01598 22.9949 0.609588 22.4982C0.203196 22.009 0 21.3844 0 20.6243C0 19.8717 0.0978351 19.1267 0.293505 18.3891C0.489175 17.6591 0.760103 16.9179 1.10629 16.1653C1.80619 14.6451 2.74314 13.2265 3.91717 11.9095C4.63211 9.99038 5.82119 8.12775 7.48438 6.32156C8.50036 5.2228 9.44485 4.44765 10.3178 3.9961C10.7543 3.77033 11.1269 3.65744 11.4354 3.65744C11.744 3.65744 11.9773 3.72893 12.1353 3.87192C12.2934 4.00739 12.3724 4.18048 12.3724 4.3912C12.3724 4.5944 12.3084 4.85404 12.1805 5.17012C12.0525 5.4862 11.8794 5.83991 11.6612 6.23125C11.4429 6.62259 11.1871 7.04027 10.8936 7.4843L9.9566 8.85022C9.88134 8.96311 9.84371 9.06471 9.84371 9.15502C9.84371 9.29801 9.93026 9.3695 10.1034 9.3695C10.299 9.3695 10.6603 9.24533 11.1871 8.99698L12.9932 8.16161C14.5737 7.44667 16.0863 7.08919 17.5313 7.08919C18.2839 7.08919 18.9913 7.44667 19.6536 8.16161C20.3234 8.88409 20.6582 9.65924 20.6582 10.4871C20.6582 11.7665 20.1352 12.7523 19.0891 13.4447L17.6893 14.3704C17.1851 14.6865 16.6658 14.9988 16.1315 15.3073L14.5059 16.1991C12.6772 17.1474 11.2623 17.6215 10.2614 17.6215C9.26799 17.6215 8.54552 17.4973 8.09397 17.249C7.64242 17.0006 7.41665 16.6507 7.41665 16.1991C7.41665 15.5896 7.91711 15.0627 8.91804 14.6187Z" fill="var(--fill-0, white)"/>
</g>
</svg>
